<svg width="7" height="63" viewBox="0 0 7 63" fill="none" xmlns="http://www.w3.org/2000/svg">
<mask maskUnits="userSpaceOnUse" x="0" y="0" width="0" height="0" fill="black">
<rect fill="white" width="0" height="0"/>
</mask>
<path d="M3.5 0L0.613249 5H6.38675L3.5 0ZM3.5 63L6.38675 58H0.613249L3.5 63ZM3 2.95312L3 4.92188H4V2.95312H3ZM3 6.89062V8.85938H4V6.89062H3ZM3 10.8281L3 12.7969H4V10.8281H3ZM3 14.7656V16.7344H4V14.7656H3ZM3 18.7031V20.6719H4L4 18.7031H3ZM3 22.6406V24.6094H4V22.6406H3ZM3 26.5781V28.5469H4V26.5781H3ZM3 30.5156V32.4844H4V30.5156H3ZM3 34.4531V36.4219H4V34.4531H3ZM3 38.3906L3 40.3594H4V38.3906H3ZM3 42.3281V44.2969H4V42.3281H3ZM3 46.2656L3 48.2344H4V46.2656H3ZM3 50.2031V52.1719H4V50.2031H3ZM3 54.1406L3 56.1094H4V54.1406H3ZM3 58.0781V60.0469H4V58.0781H3Z" fill="black" mask="url(#)"/>
</svg>
