<svg width="19" height="31" viewBox="0 0 19 31" fill="none" xmlns="http://www.w3.org/2000/svg">
<path d="M16.1378 14.8532L15.911 14.5301C15.7609 14.3162 15.5182 14.3162 15.368 14.5301L9.66979 22.6538V5.54614C9.66979 5.24576 9.49731 5 9.2865 5H8.96709C8.75628 5 8.5838 5.24576 8.5838 5.54614V22.6538L2.88237 14.5301C2.73224 14.3162 2.48949 14.3162 2.33937 14.5301L2.11259 14.8532C1.96247 15.0671 1.96247 15.413 2.11259 15.6269L8.8521 25.2343C9.00223 25.4482 9.24498 25.4482 9.3951 25.2343L16.1346 15.6269C16.2879 15.4084 16.2879 15.0671 16.1378 14.8532Z" fill="#FF6C65"/>
</svg>
