<svg width="335" height="285" viewBox="0 0 335 285" fill="none" xmlns="http://www.w3.org/2000/svg">
<g clip-path="url(#clip0)">
<path d="M0 0H313C325.15 0 335 9.84974 335 22V263C335 275.15 325.15 285 313 285H0V0Z" fill="white"/>
<path d="M168.5 275.325C286.413 275.325 382 267.537 382 257.93C382 248.323 286.413 240.535 168.5 240.535C50.5872 240.535 -45 248.323 -45 257.93C-45 267.537 50.5872 275.325 168.5 275.325Z" fill="#CCCCCC"/>
<path d="M25.3849 257.299V64.1174H289.445V257.299H25.3849Z" fill="white" stroke="black"/>
<path d="M113.751 135.706H47.1976V256.869H113.751V135.706Z" fill="white"/>
<path d="M267.632 126.205H136.064V241.349H267.632V126.205Z" fill="#26292E"/>
<path d="M317.643 100.175H-2.81369L18.5527 53.5871L23.3344 43.156L29.5901 29.5151L34.3718 19.0839L39.9151 7H292.395L295.669 19.0839L298.496 29.5151L302.194 43.156L305.021 53.5871L317.643 100.175Z" fill="#26292E"/>
<path d="M145.297 173.948H140.68V203.636H145.297V173.948Z" fill="#10E092"/>
<path d="M145.297 178.361H140.68V181.972H145.297V178.361Z" fill="#F2F2F2"/>
<path d="M145.297 195.612H140.68V199.223H145.297V195.612Z" fill="#F2F2F2"/>
<path d="M158.761 173.948H147.605V203.636H158.761V173.948Z" fill="#10E092"/>
<path d="M158.761 178.361H147.605V181.972H158.761V178.361Z" fill="#F2F2F2"/>
<path d="M158.761 195.612H147.605V199.223H158.761V195.612Z" fill="#F2F2F2"/>
<path d="M166.07 173.948H161.454V203.636H166.07V173.948Z" fill="#10E092"/>
<path d="M166.07 178.361H161.454V181.972H166.07V178.361Z" fill="#F2F2F2"/>
<path d="M166.07 195.612H161.454V199.223H166.07V195.612Z" fill="#F2F2F2"/>
<path d="M172.995 173.948H168.379V203.636H172.995V173.948Z" fill="#10E092"/>
<path d="M172.995 178.361H168.379V181.972H172.995V178.361Z" fill="#F2F2F2"/>
<path d="M172.995 195.612H168.379V199.223H172.995V195.612Z" fill="#F2F2F2"/>
<path d="M177.444 174.053L173.124 175.751L183.165 203.531L187.485 201.833L177.444 174.053Z" fill="#10E092"/>
<path d="M178.936 178.182L174.617 179.88L175.838 183.259L180.157 181.561L178.936 178.182Z" fill="#F2F2F2"/>
<path d="M184.771 194.325L180.451 196.023L181.673 199.402L185.992 197.704L184.771 194.325Z" fill="#F2F2F2"/>
<path d="M263.4 173.948H252.244V203.636H263.4V173.948Z" fill="#10E092"/>
<path d="M263.4 178.361H252.244V181.972H263.4V178.361Z" fill="#F2F2F2"/>
<path d="M263.4 195.612H252.244V199.223H263.4V195.612Z" fill="#F2F2F2"/>
<path d="M249.551 173.948H244.934V203.636H249.551V173.948Z" fill="#10E092"/>
<path d="M249.551 178.361H244.934V181.972H249.551V178.361Z" fill="#F2F2F2"/>
<path d="M249.551 195.612H244.934V199.223H249.551V195.612Z" fill="#F2F2F2"/>
<path d="M242.626 173.948H238.01V203.636H242.626V173.948Z" fill="#10E092"/>
<path d="M242.626 178.361H238.01V181.972H242.626V178.361Z" fill="#F2F2F2"/>
<path d="M242.626 195.612H238.01V199.223H242.626V195.612Z" fill="#F2F2F2"/>
<path d="M233.561 174.053L223.52 201.833L227.839 203.531L237.881 175.751L233.561 174.053Z" fill="#10E092"/>
<path d="M232.069 178.182L230.847 181.561L235.167 183.259L236.388 179.88L232.069 178.182Z" fill="#F2F2F2"/>
<path d="M226.234 194.325L225.013 197.704L229.332 199.402L230.554 196.023L226.234 194.325Z" fill="#F2F2F2"/>
<path d="M267.632 203.636H136.064V206.445H267.632V203.636Z" fill="#F2F2F2"/>
<path d="M217.621 173.948H193.384V203.636H217.621V173.948Z" fill="#10E092"/>
<path d="M211.658 180.367H199.347V185.984H211.658V180.367Z" fill="#F2F2F2"/>
<path d="M203.002 126.205H200.694V151.882H203.002V126.205Z" fill="#F2F2F2"/>
<path d="M201.848 155.894C203.972 155.894 205.695 154.097 205.695 151.882C205.695 149.666 203.972 147.87 201.848 147.87C199.723 147.87 198.001 149.666 198.001 151.882C198.001 154.097 199.723 155.894 201.848 155.894Z" fill="#F2F2F2"/>
<rect x="48" y="126" width="57" height="125" fill="#26292E"/>
<circle cx="98.5" cy="201.5" r="3.5" fill="white"/>
<path d="M119.886 268.079H115.844L113.921 249.85L119.887 249.851L119.886 268.079Z" fill="#FFB8B8"/>
<path d="M112.957 266.729H120.752V272.468H108.05C108.05 271.714 108.177 270.968 108.423 270.271C108.67 269.575 109.031 268.943 109.487 268.41C109.943 267.877 110.484 267.454 111.079 267.166C111.675 266.877 112.313 266.729 112.957 266.729Z" fill="#1A1C21"/>
<path d="M139.996 268.079H135.954L134.031 249.85L139.996 249.851L139.996 268.079Z" fill="#FFB8B8"/>
<path d="M133.067 266.729H140.862V272.468H128.159C128.159 271.714 128.286 270.968 128.533 270.271C128.78 269.575 129.141 268.943 129.597 268.41C130.052 267.877 130.593 267.454 131.189 267.166C131.784 266.877 132.423 266.729 133.067 266.729Z" fill="#1A1C21"/>
<path d="M99.6112 202.888C99.3205 202.387 99.1272 201.818 99.0449 201.22C98.9627 200.622 98.9936 200.011 99.1353 199.429C99.2771 198.846 99.5263 198.307 99.8655 197.85C100.205 197.393 100.625 197.028 101.098 196.781L114.837 152.501L121.598 156.815L105.911 199.131C106.212 200.087 106.204 201.139 105.886 202.089C105.569 203.038 104.965 203.818 104.188 204.281C103.412 204.744 102.517 204.858 101.673 204.602C100.83 204.345 100.096 203.735 99.6112 202.888Z" fill="#FFB8B8"/>
<path d="M137.931 211.208C137.482 210.907 137.095 210.495 136.797 210C136.499 209.505 136.297 208.939 136.206 208.343C136.115 207.747 136.137 207.135 136.27 206.55C136.404 205.965 136.645 205.421 136.977 204.957L132.721 158.117L140.415 158.528L142.184 204.601C142.814 205.306 143.2 206.256 143.271 207.272C143.342 208.288 143.091 209.299 142.567 210.114C142.043 210.928 141.281 211.489 140.427 211.691C139.573 211.893 138.685 211.721 137.931 211.208Z" fill="#FFB8B8"/>
<path d="M125.657 144.299C130.129 144.299 133.754 140.06 133.754 134.831C133.754 129.602 130.129 125.363 125.657 125.363C121.186 125.363 117.561 129.602 117.561 134.831C117.561 140.06 121.186 144.299 125.657 144.299Z" fill="#FFB8B8"/>
<path d="M128.058 149.02L122.493 148.669L122.921 146.206V144.799V143.392H128.058V146.206V149.02Z" fill="#FFB8B8"/>
<path d="M137.879 200.556H113.469L113.498 200.333C113.542 200.001 117.849 167.012 114.672 156.22C114.354 155.159 114.382 153.998 114.751 152.96C115.12 151.922 115.805 151.081 116.673 150.598C121.213 148.098 129.928 145.02 137.284 152.49C138.366 153.608 139.212 155.005 139.753 156.57C140.294 158.135 140.516 159.826 140.402 161.509L137.879 200.556Z" fill="#10E092"/>
<path d="M118.157 171.888L107.167 169.28L112.319 155.006C112.627 153.623 113.391 152.44 114.445 151.716C115.498 150.992 116.754 150.786 117.937 151.143C119.12 151.5 120.134 152.391 120.756 153.621C121.378 154.851 121.557 156.319 121.254 157.703L118.157 171.888Z" fill="#10E092"/>
<path d="M132.232 176.728L131.572 159.019C131.071 155.689 132.701 152.542 135.207 152.028C137.714 151.515 140.163 153.824 140.666 157.178L143.149 173.726L132.232 176.728Z" fill="#10E092"/>
<path d="M137.067 198.435C140.995 215.928 141.424 238.167 140.364 262.426L135.089 261.655L125.529 215.397L120.254 262.426L114.32 262.041C112.548 236.587 110.822 214.736 113.661 200.363L137.067 198.435Z" fill="#1A1C21"/>
<path d="M130.992 142.149C129.482 144.03 126.677 143.02 126.48 140.45C126.464 140.25 126.466 140.049 126.483 139.85C126.585 138.711 127.147 137.678 127.013 136.476C126.982 136.176 126.887 135.891 126.736 135.647C125.532 133.762 122.706 136.49 121.57 134.784C120.874 133.738 121.693 132.09 121.158 130.921C120.453 129.378 118.363 130.139 117.053 129.294C115.594 128.354 115.682 125.738 116.641 124.147C117.812 122.206 119.864 121.171 121.891 121.022C123.917 120.872 125.93 121.513 127.822 122.375C129.972 123.355 132.104 124.709 133.427 126.919C135.036 129.607 135.19 133.221 134.386 136.364C133.896 138.276 132.226 140.612 130.992 142.149Z" fill="#1A1C21"/>
<path d="M62.1448 167.378L69.7569 167.452C70.3369 167.457 70.912 167.345 71.4488 167.124C71.9856 166.902 72.4732 166.575 72.8834 166.162C73.2935 165.749 73.6179 165.258 73.8378 164.717C74.0576 164.176 74.1685 163.597 74.1639 163.013C74.1639 160.825 74.1193 158.08 74.0996 155.334H75.1531C75.1185 158.075 75.0937 160.815 75.0789 163.003C75.0743 163.587 75.1851 164.166 75.405 164.707C75.6248 165.248 75.9492 165.739 76.3594 166.152C76.7695 166.566 77.2572 166.892 77.7939 167.114C78.3307 167.335 78.9058 167.447 79.4859 167.442L87.1078 167.378V168.439C84.3874 168.404 81.6671 168.379 79.4908 168.364C78.911 168.359 78.3361 168.471 77.7996 168.693C77.2631 168.914 76.7758 169.241 76.366 169.654C75.9563 170.068 75.6323 170.559 75.413 171.1C75.1937 171.64 75.0835 172.22 75.0888 172.804C75.0888 174.991 75.1333 177.737 75.1531 180.482H74.0996C74.1292 177.737 74.154 175.001 74.1737 172.809C74.1777 172.225 74.0664 171.646 73.8462 171.106C73.6261 170.566 73.3016 170.075 72.8915 169.662C72.4814 169.25 71.994 168.923 71.4575 168.702C70.9211 168.481 70.3464 168.369 69.7668 168.374L62.1448 168.439V167.378ZM87.5183 157.253C87.5183 157.751 87.5183 158.249 87.5183 158.797H86.816C86.816 158.259 86.816 157.736 86.816 157.258C86.8186 156.819 86.735 156.385 86.5699 155.98C86.4049 155.575 86.1617 155.206 85.8544 154.896C85.5471 154.586 85.1819 154.341 84.7798 154.174C84.3778 154.007 83.9468 153.922 83.512 153.924H81.9836V153.192H83.507C83.944 153.196 84.3773 153.112 84.7818 152.945C85.1862 152.779 85.5537 152.533 85.8626 152.221C86.1716 151.91 86.4159 151.54 86.5813 151.132C86.7467 150.725 86.8298 150.288 86.8259 149.848C86.8259 149.35 86.8259 148.852 86.8259 148.304H87.5381C87.5381 148.847 87.5381 149.365 87.5381 149.843C87.5341 150.283 87.6173 150.72 87.7828 151.127C87.9482 151.534 88.1926 151.904 88.5016 152.215C88.8107 152.525 89.1782 152.771 89.5826 152.937C89.987 153.103 90.4202 153.186 90.8569 153.182H92.3853V153.924H90.8569C90.4208 153.921 89.9884 154.005 89.5849 154.171C89.1813 154.338 88.8147 154.584 88.5063 154.895C88.198 155.205 87.954 155.575 87.7886 155.981C87.6232 156.388 87.5398 156.823 87.5431 157.263L87.5183 157.253ZM58 152.041V197L97 176.964V132L58 152.041Z" fill="white"/>
</g>
<defs>
<clipPath id="clip0">
<path d="M0 0H313C325.15 0 335 9.84974 335 22V263C335 275.15 325.15 285 313 285H0V0Z" fill="white"/>
</clipPath>
</defs>
</svg>
