<svg id="Слой_1" data-name="Слой 1" xmlns="http://www.w3.org/2000/svg" viewBox="0 0 201.87 499.96"><defs><style>.cls-1{fill:#231f20;}</style></defs><polygon class="cls-1" points="88.89 198.26 85.56 224.16 85.53 208.66 88.86 182.77 88.89 198.26"/><polygon class="cls-1" points="64.34 201.22 57.63 224.21 57.6 206.05 64.31 183.07 64.34 201.22"/><polygon class="cls-1" points="39.8 204.18 29.7 224.26 29.66 203.45 39.76 183.37 39.8 204.18"/><polygon class="cls-1" points="15.25 207.15 1.77 224.32 1.73 200.84 15.21 183.67 15.25 207.15"/><polygon class="cls-1" points="37.43 291.51 32.41 315.95 32.38 299.13 37.4 274.69 37.43 291.51"/><polygon class="cls-1" points="13.73 295.93 3.63 316.01 3.6 295.19 13.69 275.11 13.73 295.93"/><polygon class="cls-1" points="62.74 244.11 59.41 270 59.38 254.51 62.71 228.62 62.74 244.11"/><polygon class="cls-1" points="38.61 247.8 31.06 270.06 31.02 251.23 38.58 228.98 38.61 247.8"/><polygon class="cls-1" points="14.49 251.49 2.7 270.11 2.66 247.96 14.45 229.34 14.49 251.49"/><polygon class="cls-1" points="85.68 290.22 89.11 316.1 89.08 300.6 85.65 274.72 85.68 290.22"/><polygon class="cls-1" points="110.22 293.08 117.01 316.04 116.98 297.89 110.19 274.93 110.22 293.08"/><polygon class="cls-1" points="134.76 295.95 144.92 315.99 144.88 295.17 134.72 275.13 134.76 295.95"/><polygon class="cls-1" points="159.3 298.82 172.83 315.94 172.78 292.46 159.25 275.34 159.3 298.82"/><polygon class="cls-1" points="183.84 301.68 200.74 315.88 200.69 289.75 183.79 275.55 183.84 301.68"/><polygon class="cls-1" points="115.04 152.46 111.72 178.35 111.69 162.85 115.02 136.96 115.04 152.46"/><polygon class="cls-1" points="90.22 154.93 84.07 178.4 84.03 160.69 90.18 137.22 90.22 154.93"/><polygon class="cls-1" points="65.39 157.41 56.42 178.46 56.38 158.53 65.35 137.48 65.39 157.41"/><polygon class="cls-1" points="40.56 159.88 28.77 178.51 28.73 156.36 40.51 137.74 40.56 159.88"/><polygon class="cls-1" points="15.73 162.36 1.12 178.56 1.08 154.2 15.68 138 15.73 162.36"/><polygon class="cls-1" points="59.53 336.13 62.96 362.01 62.93 346.52 59.5 320.64 59.53 336.13"/><polygon class="cls-1" points="84.37 338.51 90.61 361.96 90.58 344.25 84.34 320.8 84.37 338.51"/><polygon class="cls-1" points="109.21 340.89 118.26 361.91 118.22 341.98 109.17 320.96 109.21 340.89"/><polygon class="cls-1" points="134.05 343.28 145.91 361.86 145.86 339.71 134.01 321.13 134.05 343.28"/><polygon class="cls-1" points="158.89 345.66 173.55 361.8 173.51 337.44 158.84 321.29 158.89 345.66"/><polygon class="cls-1" points="183.73 348.04 201.2 361.75 201.15 335.17 183.68 321.45 183.73 348.04"/><polygon class="cls-1" points="15.85 92.42 0.68 108.13 0.73 132.94 15.9 117.22 15.85 92.42"/><polygon class="cls-1" points="28.18 110.17 40.81 92.27 40.85 115.08 28.22 132.98 28.18 110.17"/><polygon class="cls-1" points="55.68 112.21 65.77 92.13 65.81 112.95 55.72 133.02 55.68 112.21"/><polygon class="cls-1" points="83.18 114.25 90.73 91.99 90.77 110.81 83.21 133.07 83.18 114.25"/><polygon class="cls-1" points="110.67 116.28 115.69 91.85 115.73 108.67 110.71 133.11 110.67 116.28"/><polygon class="cls-1" points="138.17 118.32 140.66 91.7 140.68 106.53 138.2 133.15 138.17 118.32"/><polygon class="cls-1" points="201.38 380.55 183.69 367.08 183.74 393.89 201.43 407.36 201.38 380.55"/><polygon class="cls-1" points="173.99 382.7 158.82 367.04 158.87 391.84 174.04 407.5 173.99 382.7"/><polygon class="cls-1" points="146.61 384.84 133.96 366.99 134 389.8 146.65 407.65 146.61 384.84"/><polygon class="cls-1" points="119.23 386.98 109.09 366.94 109.14 387.76 119.27 407.8 119.23 386.98"/><polygon class="cls-1" points="91.84 389.12 84.23 366.89 84.27 385.71 91.88 407.94 91.84 389.12"/><polygon class="cls-1" points="64.46 391.26 59.36 366.85 59.4 383.67 64.49 408.09 64.46 391.26"/><polygon class="cls-1" points="37.07 393.41 34.5 366.8 34.53 381.63 37.1 408.24 37.07 393.41"/><polygon class="cls-1" points="16.23 0.86 0 15.66 0.05 41.3 16.28 26.5 16.23 0.86"/><polygon class="cls-1" points="41.47 0.73 27.25 17.26 27.29 41.33 41.52 24.8 41.47 0.73"/><polygon class="cls-1" points="66.71 0.61 54.49 18.86 54.53 41.35 66.76 23.1 66.71 0.61"/><polygon class="cls-1" points="91.95 0.49 81.73 20.46 81.78 41.37 91.99 21.4 91.95 0.49"/><polygon class="cls-1" points="117.19 0.36 108.98 22.06 109.02 41.4 117.23 19.7 117.19 0.36"/><polygon class="cls-1" points="142.44 0.24 136.22 23.66 136.26 41.42 142.47 18 142.44 0.24"/><polygon class="cls-1" points="167.68 0.12 163.47 25.26 163.5 41.44 167.71 16.3 167.68 0.12"/><polygon class="cls-1" points="192.78 26.85 190.85 0 190.88 14.61 192.81 41.46 192.78 26.85"/><polygon class="cls-1" points="5.47 343.87 11.63 320.72 11.66 338.73 5.51 361.88 5.47 343.87"/><polygon class="cls-1" points="34.94 320.26 34.47 347.12 34.5 361.73 34.97 334.87 34.94 320.26"/><polygon class="cls-1" points="61.37 274.54 60.89 301.39 60.92 316 61.39 289.14 61.37 274.54"/><polygon class="cls-1" points="87.52 228.53 87.04 255.38 87.07 269.99 87.54 243.13 87.52 228.53"/><polygon class="cls-1" points="7.99 393.83 9.03 366.97 9.06 381.58 8.02 408.44 7.99 393.83"/><polygon class="cls-1" points="196.63 113.8 188.17 91.81 188.2 110.86 196.67 132.84 196.63 113.8"/><polygon class="cls-1" points="194.53 69.78 190.11 47.78 190.14 66.83 194.56 88.82 194.53 69.78"/><polygon class="cls-1" points="166.89 118.5 165.75 91.65 165.78 106.25 166.92 133.11 166.89 118.5"/><polygon class="cls-1" points="201.82 471.85 183.53 458.84 183.58 486.06 201.87 499.07 201.82 471.85"/><polygon class="cls-1" points="174.58 473.56 158.29 458.82 158.34 484.46 174.63 499.2 174.58 473.56"/><polygon class="cls-1" points="147.34 475.26 133.05 458.79 133.1 482.86 147.39 499.33 147.34 475.26"/><polygon class="cls-1" points="120.1 476.96 107.81 458.76 107.85 481.25 120.14 499.45 120.1 476.96"/><polygon class="cls-1" points="92.86 478.67 82.57 458.73 82.61 479.65 92.9 499.58 92.86 478.67"/><polygon class="cls-1" points="65.62 480.37 57.33 458.71 57.36 478.05 65.66 499.71 65.62 480.37"/><polygon class="cls-1" points="38.38 482.07 32.09 458.68 32.12 476.44 38.42 499.83 38.38 482.07"/><polygon class="cls-1" points="11.15 483.78 6.85 458.65 6.88 474.84 11.18 499.96 11.15 483.78"/><polygon class="cls-1" points="16.18 46.63 0.38 61.81 0.43 87.11 16.23 71.94 16.18 46.63"/><polygon class="cls-1" points="27.77 63.59 41.35 46.51 41.4 70.06 27.82 87.14 27.77 63.59"/><polygon class="cls-1" points="55.16 65.36 66.53 46.37 66.57 68.19 55.2 87.18 55.16 65.36"/><polygon class="cls-1" points="82.56 67.14 91.7 46.24 91.74 66.31 82.59 87.21 82.56 67.14"/><polygon class="cls-1" points="109.95 68.92 116.87 46.11 116.9 64.44 109.98 87.24 109.95 68.92"/><polygon class="cls-1" points="137.34 70.69 142.04 45.98 142.07 62.56 137.37 87.27 137.34 70.69"/><polygon class="cls-1" points="164.73 72.47 167.21 45.85 167.24 60.68 164.76 87.3 164.73 72.47"/><polygon class="cls-1" points="201.59 426.15 183.51 412.96 183.56 440.01 201.64 453.21 201.59 426.15"/><polygon class="cls-1" points="174.2 428.04 158.34 412.92 158.39 438.23 174.25 453.34 174.2 428.04"/><polygon class="cls-1" points="146.82 429.92 133.17 412.89 133.21 436.45 146.86 453.48 146.82 429.92"/><polygon class="cls-1" points="119.43 431.8 108 412.85 108.04 434.67 119.47 453.61 119.43 431.8"/><polygon class="cls-1" points="92.05 433.68 82.82 412.82 82.86 432.89 92.08 453.75 92.05 433.68"/><polygon class="cls-1" points="64.66 435.56 57.65 412.78 57.69 431.11 64.7 453.88 64.66 435.56"/><polygon class="cls-1" points="37.28 437.44 32.48 412.75 32.51 429.32 37.31 454.02 37.28 437.44"/><polygon class="cls-1" points="9.89 439.32 7.31 412.71 7.34 427.54 9.92 454.15 9.89 439.32"/><polygon class="cls-1" points="62.74 244.11 59.41 270 59.38 254.51 62.71 228.62 62.74 244.11"/><polygon class="cls-1" points="38.61 247.8 31.06 270.06 31.02 251.23 38.58 228.98 38.61 247.8"/><polygon class="cls-1" points="14.49 251.49 2.7 270.11 2.66 247.96 14.45 229.34 14.49 251.49"/><polygon class="cls-1" points="111.73 244.02 115.16 269.9 115.13 254.4 111.7 228.52 111.73 244.02"/><polygon class="cls-1" points="135.89 247.61 143.54 269.84 143.5 251.02 135.86 228.79 135.89 247.61"/><polygon class="cls-1" points="160.05 251.21 171.92 269.79 171.88 247.64 160.01 229.06 160.05 251.21"/><polygon class="cls-1" points="184.21 254.8 200.3 269.73 200.25 244.26 184.16 229.33 184.21 254.8"/><polygon class="cls-1" points="197.96 157.39 186.12 138 186.16 159.41 198 178.8 197.96 157.39"/><polygon class="cls-1" points="169.15 160.75 162.94 137.63 162.98 155.64 169.18 178.76 169.15 160.75"/><polygon class="cls-1" points="140.34 164.12 139.77 137.26 139.8 151.87 140.37 178.73 140.34 164.12"/><polygon class="cls-1" points="113.69 212.03 113.63 183.23 113.66 196.06 113.71 224.86 113.69 212.03"/><polygon class="cls-1" points="137.37 200.39 142.48 224.81 142.45 207.98 137.34 183.56 137.37 200.39"/><polygon class="cls-1" points="161.09 204.71 171.26 224.75 171.22 203.93 161.05 183.89 161.09 204.71"/><polygon class="cls-1" points="184.81 209.04 200.03 224.7 199.99 199.89 184.76 184.23 184.81 209.04"/></svg>