<svg id="Слой_1" data-name="Слой 1" xmlns="http://www.w3.org/2000/svg" viewBox="0 0 1647 705.82"><defs><style>.cls-2{fill:#fff;}.cls-3{fill:#fff;}.cls-4{fill:#fff;}.cls-5{fill:#fff;}.cls-6{fill:#fff;}</style></defs><path class="cls-2" d="M204.28,703.7a8.52,8.52,0,0,0,2.34-6V695h2.75v2.68a8.59,8.59,0,0,0,2.34,6,7.78,7.78,0,0,0,5.65,2.46H220V709h-2.62a7.74,7.74,0,0,0-5.65,2.46,8.53,8.53,0,0,0-2.34,6v2.7h-2.75V717.5a8.59,8.59,0,0,0-2.34-6,7.78,7.78,0,0,0-5.66-2.45H196v-2.89h2.63a7.75,7.75,0,0,0,5.65-2.47" transform="translate(-137 -108)"/><path class="cls-2" d="M357.65,688a3.71,3.71,0,1,1,3.23-3.68,3.48,3.48,0,0,1-3.23,3.68" transform="translate(-137 -108)"/><path class="cls-3" d="M793.69,444.61h2.13a6.62,6.62,0,0,0,4.84-2.1,7.23,7.23,0,0,0,2-5.1c0-1.71,0-3.88,0-6.19l-.07-9.23h2.91v.58c0,3.88-.08,8.56-.11,12.33l0,2.5a7.24,7.24,0,0,0,2,5.1,6.65,6.65,0,0,0,4.83,2.1h.06l8.41-.08,6.37,0v3h-.56c-3.71,0-8.21-.09-11.81-.12l-2.39,0h-.06a6.67,6.67,0,0,0-4.84,2.1,7.21,7.21,0,0,0-2,5.11c0,2.33,0,5.53.07,8.76l0,6.65h-2.91v-.58c0-3.87.08-8.56.1-12.33l0-2.49a7.21,7.21,0,0,0-2-5.11,6.64,6.64,0,0,0-4.83-2.09h-.07l-7.09.06-7.68.06v-3h.56l12.13.12" transform="translate(-137 -108)"/><path class="cls-4" d="M843.55,660.84l2.78,0a9.05,9.05,0,0,0,6.31-2.49,8.17,8.17,0,0,0,2.61-6.06c0-2,0-4.6-.06-7.35l-.09-11h3.8v.69c0,4.6-.1,10.17-.14,14.64l0,3a8.18,8.18,0,0,0,2.62,6.06,9.12,9.12,0,0,0,6.31,2.48h.08l11-.08,8.31-.06v3.61h-.74c-4.83-.06-10.69-.1-15.39-.13l-3.12,0h-.09a9.13,9.13,0,0,0-6.3,2.49,8.16,8.16,0,0,0-2.61,6.07c0,2.77.06,6.56.09,10.41l0,7.89H855.1v-.69c.06-4.6.1-10.17.14-14.64l0-3a8.16,8.16,0,0,0-2.61-6.07,9.12,9.12,0,0,0-6.3-2.48h-.1l-9.24.07-10,.08V660.7h.74c5,.06,11.24.1,15.81.14" transform="translate(-137 -108)"/><path class="cls-5" d="M1746.34,438.79h2.41a7.27,7.27,0,0,0,5.48-2.57,9.37,9.37,0,0,0,2.25-6.28c0-2.09,0-4.76,0-7.6l-.08-11.35h3.29v.72c-.05,4.76-.09,10.52-.12,15.15l0,3.07a9.35,9.35,0,0,0,2.27,6.27,7.26,7.26,0,0,0,5.47,2.58h.07l9.5-.09,7.2-.07v3.74h-.64c-4.19-.06-9.27-.1-13.34-.14l-2.71,0h-.07a7.25,7.25,0,0,0-5.47,2.58,9.29,9.29,0,0,0-2.25,6.28c0,2.86,0,6.79.07,10.77l.05,8.17h-3.29v-.72c.05-4.76.09-10.52.12-15.15l0-3.06a9.31,9.31,0,0,0-2.26-6.28,7.25,7.25,0,0,0-5.47-2.57h-.08l-8,.07-8.68.08v-3.74h.64c4.31.06,9.74.1,13.7.15" transform="translate(-137 -108)"/><path class="cls-3" d="M872.58,354.27a13.31,13.31,0,0,0,3.58-9.29v-4.17h4.21V345a13.34,13.34,0,0,0,3.6,9.29,11.79,11.79,0,0,0,8.65,3.8h4v4.48l-.74,0h-3.28a11.86,11.86,0,0,0-8.66,3.8,13.3,13.3,0,0,0-3.59,9.3l0,4.16h-4.22v-4.14a13.31,13.31,0,0,0-3.59-9.3,11.84,11.84,0,0,0-8.67-3.79h-4v-4.48l4,0a11.85,11.85,0,0,0,8.67-3.82" transform="translate(-137 -108)"/><path class="cls-4" d="M770.92,704.6a7.66,7.66,0,0,0,2-5.25V697h2.3v2.34a7.66,7.66,0,0,0,2,5.25,6.33,6.33,0,0,0,4.72,2.15h2.21v2.53h-2.2a6.36,6.36,0,0,0-4.72,2.14,7.65,7.65,0,0,0-2,5.26V719h-2.3v-2.34a7.62,7.62,0,0,0-2-5.25,6.32,6.32,0,0,0-4.72-2.14H764v-2.53h2.2a6.34,6.34,0,0,0,4.72-2.16" transform="translate(-137 -108)"/><path class="cls-5" d="M1618.59,354.27a13.32,13.32,0,0,0,3.59-9.29l0-4.17h4.22V345a13.29,13.29,0,0,0,3.59,9.29,11.83,11.83,0,0,0,8.66,3.8h4.05v4.48l-.75,0h-3.27a11.83,11.83,0,0,0-8.66,3.8,13.25,13.25,0,0,0-3.59,9.3v4.16h-4.22v-4.14a13.35,13.35,0,0,0-3.58-9.3,11.86,11.86,0,0,0-8.67-3.79h-4v-4.48l4,0a11.83,11.83,0,0,0,8.67-3.82" transform="translate(-137 -108)"/><path class="cls-5" d="M1692.52,564.75a12,12,0,0,0,3-8.12l0-3.63h3.5v3.62a12,12,0,0,0,3,8.11,9.59,9.59,0,0,0,7.17,3.32l3.36,0v3.91h-3.33a9.6,9.6,0,0,0-7.18,3.32,11.92,11.92,0,0,0-3,8.11V587h-3.5v-3.62a12,12,0,0,0-3-8.11,9.59,9.59,0,0,0-7.18-3.31H1682v-3.9h3.34a9.61,9.61,0,0,0,7.18-3.33" transform="translate(-137 -108)"/><path class="cls-6" d="M1113,117.33a9.11,9.11,0,0,0,2.54-6.45V108h3v2.88a9.16,9.16,0,0,0,2.54,6.44,8.46,8.46,0,0,0,6.12,2.63H1130V123h-2.85a8.45,8.45,0,0,0-6.12,2.64,9.1,9.1,0,0,0-2.54,6.44V135h-3v-2.88a9.12,9.12,0,0,0-2.54-6.44,8.45,8.45,0,0,0-6.13-2.63H1104V120h2.85a8.45,8.45,0,0,0,6.12-2.64" transform="translate(-137 -108)"/><path class="cls-2" d="M221.8,522.66a10.74,10.74,0,0,0,2.78-7.37l0-3.29h3.26v3.28a10.68,10.68,0,0,0,2.78,7.36,9,9,0,0,0,6.68,3l3.13,0v3.55h-3.11a9,9,0,0,0-6.68,3,10.64,10.64,0,0,0-2.78,7.36v3.3h-3.25v-3.29a10.6,10.6,0,0,0-2.77-7.35,9,9,0,0,0-6.69-3H212v-3.54h3.11a9.05,9.05,0,0,0,6.69-3" transform="translate(-137 -108)"/><path class="cls-3" d="M726.77,545.82a3.72,3.72,0,1,1,3.23-3.69,3.48,3.48,0,0,1-3.23,3.69" transform="translate(-137 -108)"/><path class="cls-5" d="M1624.28,449.69a3.71,3.71,0,1,1,3.23-3.68,3.48,3.48,0,0,1-3.23,3.68" transform="translate(-137 -108)"/><path class="cls-4" d="M705.34,666a3.71,3.71,0,1,1,3.23-3.68,3.48,3.48,0,0,1-3.23,3.68" transform="translate(-137 -108)"/><path class="cls-4" d="M880.76,555a3.72,3.72,0,1,1,3.23-3.68,3.48,3.48,0,0,1-3.23,3.68" transform="translate(-137 -108)"/><path class="cls-5" d="M1482.66,269.89a3.71,3.71,0,1,1,3.23-3.68,3.48,3.48,0,0,1-3.23,3.68" transform="translate(-137 -108)"/><path class="cls-2" d="M140.23,508.23a3.71,3.71,0,1,1,3.23-3.68,3.48,3.48,0,0,1-3.23,3.68" transform="translate(-137 -108)"/><path class="cls-2" d="M257,813.82a3.71,3.71,0,1,1,3.24-3.68,3.48,3.48,0,0,1-3.24,3.68" transform="translate(-137 -108)"/><path class="cls-4" d="M913.33,711.68a3.71,3.71,0,1,1,3.23-3.68,3.48,3.48,0,0,1-3.23,3.68" transform="translate(-137 -108)"/></svg>