<svg id="Слой_1" data-name="Слой 1" xmlns="http://www.w3.org/2000/svg" viewBox="0 0 25.52 25.79"><defs><style>.cls-1{fill:#231f20;}</style></defs><path class="cls-1" d="M30.48,25.65H29.3a3.77,3.77,0,0,0-2.69,1.12,3.85,3.85,0,0,0-1.11,2.75c0,.91,0,2.08,0,3.32l0,5H24v-.31c0-2.08,0-4.6.06-6.63V29.51a3.85,3.85,0,0,0-1.12-2.74,3.75,3.75,0,0,0-2.68-1.12h0l-4.67,0-3.53,0V24.08h.31c2.06,0,4.55.05,6.55.06h1.36A3.79,3.79,0,0,0,22.91,23,3.86,3.86,0,0,0,24,20.28c0-1.25,0-3,0-4.71L24,12h1.62v.31c0,2.08,0,4.6-.06,6.63v1.34A3.81,3.81,0,0,0,26.61,23a3.71,3.71,0,0,0,2.68,1.12h0l3.94,0,4.26,0v1.63h-.31c-2.12,0-4.79-.05-6.73-.06" transform="translate(-12 -12)"/><path class="cls-1" d="M35.8,15h-.25a.7.7,0,0,1-.55-.27,1.05,1.05,0,0,1-.23-.68c0-.22,0-.51,0-.81V12h-.34v.08c0,.51,0,1.13,0,1.62V14a1.05,1.05,0,0,1-.23.68.73.73,0,0,1-.55.27H32v.4h.06l1.35,0h.28a.71.71,0,0,1,.55.28,1,1,0,0,1,.23.67c0,.31,0,.73,0,1.16v.87h.34v-.07c0-.51,0-1.13,0-1.63V16.3a1,1,0,0,1,.23-.67.71.71,0,0,1,.55-.28h1.69V15H35.8" transform="translate(-12 -12)"/></svg>