<svg id="Слой_1" data-name="Слой 1" xmlns="http://www.w3.org/2000/svg" viewBox="0 0 66 100"><defs><style>.cls-1{fill:#fff;}</style></defs><polygon class="cls-1" points="0 30.83 0 100 66 69.17 66 0 0 30.83"/><path d="M55.14,61.27a.59.59,0,0,1-.61-.57.58.58,0,0,1,.61-.56.59.59,0,0,1,.62.56.6.6,0,0,1-.62.57" transform="translate(-14 0)"/><path d="M68.71,64.7a.56.56,0,1,1,0-1.12.56.56,0,1,1,0,1.12" transform="translate(-14 0)"/><path d="M71.47,61.49a.56.56,0,1,1,.62-.56.59.59,0,0,1-.62.56" transform="translate(-14 0)"/><path d="M23.93,54.77a.56.56,0,1,1,0-1.12.56.56,0,1,1,0,1.12" transform="translate(-14 0)"/><path d="M44.39,53.69a.56.56,0,1,1,.61-.56.58.58,0,0,1-.61.56" transform="translate(-14 0)"/><path d="M48.17,50.84a.6.6,0,0,1-.61-.57.62.62,0,0,1,1.23,0,.6.6,0,0,1-.62.57" transform="translate(-14 0)"/><path d="M36.43,42.22a.56.56,0,1,1,.62-.56.59.59,0,0,1-.62.56" transform="translate(-14 0)"/><path d="M71.82,12.6a.56.56,0,1,1,.61-.56.59.59,0,0,1-.61.56" transform="translate(-14 0)"/><path d="M42.07,75.15a.56.56,0,1,1,.61-.56.59.59,0,0,1-.61.56" transform="translate(-14 0)"/><path d="M65.07,26.61h.52a1.71,1.71,0,0,0,1.17-.45,1.46,1.46,0,0,0,.49-1.09c0-.36,0-.82,0-1.31l0-2h.71v.13c0,.82,0,1.82,0,2.62v.53a1.46,1.46,0,0,0,.49,1.09,1.75,1.75,0,0,0,1.17.44h3.6v.64H73l-2.86,0h-.6a1.73,1.73,0,0,0-1.17.45,1.45,1.45,0,0,0-.48,1.09c0,.49,0,1.17,0,1.86V32h-.7v-.13c0-.82,0-1.82,0-2.62v-.53a1.45,1.45,0,0,0-.48-1.09,1.73,1.73,0,0,0-1.18-.44H62v-.64h.13l2.94,0" transform="translate(-14 0)"/><path d="M48.88,64.92h.7a1.73,1.73,0,0,0,1.18-.45,1.49,1.49,0,0,0,.48-1.09c0-.36,0-.82,0-1.31l0-2h.71v.13c0,.81,0,1.77,0,2.69v.46a1.45,1.45,0,0,0,.48,1.09,1.73,1.73,0,0,0,1.18.44h3.59v.64H57l-2.95,0h-.51a1.7,1.7,0,0,0-1.17.44,1.46,1.46,0,0,0-.49,1.09c0,.49,0,1.18,0,1.86v1.42h-.71V70.2c0-.82,0-1.82,0-2.62v-.53A1.41,1.41,0,0,0,50.76,66a1.77,1.77,0,0,0-1.17-.44H46V64.9h.14l2.75,0" transform="translate(-14 0)"/><path d="M23.26,37.14l2.87,0h.58a1.74,1.74,0,0,0,1.18-.44,1.46,1.46,0,0,0,.49-1.09c0-.42,0-1,0-1.57l0-1.71h.71v.12c0,.8,0,1.77,0,2.55v.61a1.47,1.47,0,0,0,.48,1.09,1.78,1.78,0,0,0,1.18.44H32.4l1.88,0v.65h-.13l-2.95,0h-.51a1.71,1.71,0,0,0-1.17.45A1.44,1.44,0,0,0,29,39.28c0,.43,0,1,0,1.56v1.72h-.71v-.12c0-.82,0-1.82,0-2.62v-.53a1.43,1.43,0,0,0-.48-1.09,1.71,1.71,0,0,0-1.17-.45h0l-1.73,0H23.13v-.65Z" transform="translate(-14 0)"/><path d="M60.54,40.85v.06l0-.06a1.79,1.79,0,0,0,1.2-.45,1.5,1.5,0,0,0,.49-1.11v-.5h.58v.5a1.44,1.44,0,0,0,.5,1.1,1.72,1.72,0,0,0,1.19.46h.56v.53h-.54a1.72,1.72,0,0,0-1.21.45,1.51,1.51,0,0,0-.5,1.11v.5h-.59v-.5a1.45,1.45,0,0,0-.49-1.1,1.75,1.75,0,0,0-1.2-.46H60v-.53h.55" transform="translate(-14 0)"/><path d="M59.61,19.92h.29a1.77,1.77,0,0,0,1.2-.45,1.48,1.48,0,0,0,.5-1.11v-.5h.58v.5a1.47,1.47,0,0,0,.49,1.11,1.79,1.79,0,0,0,1.2.45h.56v.53h-.56a1.74,1.74,0,0,0-1.19.45,1.48,1.48,0,0,0-.5,1.11v.5H61.6V22a1.42,1.42,0,0,0-.5-1.1,1.7,1.7,0,0,0-1.19-.46h-.56v-.54h.26" transform="translate(-14 0)"/><path d="M30,72.32a1.48,1.48,0,0,0,.5-1.11v-.5h.58v.5a1.47,1.47,0,0,0,.49,1.11,1.79,1.79,0,0,0,1.2.45h.56v.53h-.56a1.72,1.72,0,0,0-1.19.46,1.46,1.46,0,0,0-.5,1.11v.49H30.5v-.49A1.47,1.47,0,0,0,30,73.76a1.79,1.79,0,0,0-1.2-.45h-.56v-.54h.56A1.77,1.77,0,0,0,30,72.32" transform="translate(-14 0)"/><path d="M23,81.91a1.75,1.75,0,0,0,1.2-.46,1.45,1.45,0,0,0,.49-1.11v-.49h.58v.49a1.5,1.5,0,0,0,.5,1.11,1.77,1.77,0,0,0,1.2.45h.55v.54h-.54a1.79,1.79,0,0,0-1.21.46A1.47,1.47,0,0,0,25.23,84v.5h-.58V84a1.48,1.48,0,0,0-.5-1.11A1.76,1.76,0,0,0,23,82.44H22.4v-.53Z" transform="translate(-14 0)"/></svg>