<svg id="Слой_1" data-name="Слой 1" xmlns="http://www.w3.org/2000/svg" viewBox="0 0 120 120"><defs><style>.cls-1{fill:#fff;}</style></defs><rect class="cls-1" width="120" height="120"/><path d="M96.45,99.07A3.06,3.06,0,0,1,93.38,96V95H92.33v1a3.09,3.09,0,0,1-.9,2.19,3,3,0,0,1-2.17.9h-1v1.06h1a3.07,3.07,0,0,1,3.09,3.09v1h1.06v-1a3.06,3.06,0,0,1,3.06-3.09h1V99.07Z" transform="translate(0 0)"/><path d="M83.69,80.13a3.08,3.08,0,0,1-.9-2.2V77H81.74v1A3.07,3.07,0,0,1,78.68,81h-1v1.06h1a3.08,3.08,0,0,1,2.16.89,3,3,0,0,1,.9,2.2v1h1.06v-1a3.06,3.06,0,0,1,3.06-3.09h1V81h-1a3,3,0,0,1-2.16-.9" transform="translate(0 0)"/><path d="M39.1,33.12h-.53A3.06,3.06,0,0,1,35.51,30v-1h-1v1a3.07,3.07,0,0,1-3.06,3.09h-1v1.06h1a3,3,0,0,1,3.06,3.09v1h1v-1a3.07,3.07,0,0,1,3.06-3.09h1V33.12H39.1" transform="translate(0 0)"/><path d="M60.6,17v.1l0-.1a3.06,3.06,0,0,1-3.06-3.09V13H56.47v1A3.07,3.07,0,0,1,53.41,17h-1v1.05h1a3,3,0,0,1,2.19.9,3,3,0,0,1,.89,2.19v1h1.06v-1a3,3,0,0,1,.9-2.19,3,3,0,0,1,2.16-.9h1V17h-1" transform="translate(0 0)"/><path d="M109,29l-5.18.05h-1a3,3,0,0,1-2.15-.88A3,3,0,0,1,99.74,26c0-.84,0-1.94,0-3.1l0-3.38H98.51v.24c0,1.58,0,3.5,0,5V26a3,3,0,0,1-3,3h0l-3.08,0-3.4,0v1.28h.25l5.32,0h.93a3,3,0,0,1,3,3c0,.83,0,1.93,0,3.08l0,3.4h1.28v-.25c0-1.62,0-3.59-.05-5.18V33.23a3,3,0,0,1,3-3h0l3.13,0,3.35,0V29Z" transform="translate(0 0)"/><path d="M58.51,92.14H57.25a3,3,0,0,1-3-3c0-.72,0-1.63,0-2.6l0-3.88H53v.25c0,1.6,0,3.5,0,5.31v.92a3,3,0,0,1-3,3h0l-3.08,0-3.4,0v1.28h.25l5.32-.05h.93a3,3,0,0,1,3,3c0,1,0,2.33,0,3.69l0,2.79H54.3v-.25c0-1.62,0-3.59,0-5.18v-1a3,3,0,0,1,3-3h0l3.14,0,3.34,0V92.09H63.5l-5,0" transform="translate(0 0)"/><path d="M29.22,46.34h-.94a3,3,0,0,1-2.12-.88,3,3,0,0,1-.88-2.15c0-.71,0-1.63,0-2.6l0-3.88H24.06v.25c0,1.62,0,3.59.05,5.18v1a3,3,0,0,1-3,3h0l-3.68,0-2.8,0v1.28h.25l5.18,0h1.08a3,3,0,0,1,3,3c0,1,0,2.33,0,3.69l0,2.79h1.27v-.24c0-1.63,0-3.6,0-5.18V50.55a3,3,0,0,1,3-3h0l3.11,0,3.37,0V46.29h-.25l-5.32,0" transform="translate(0 0)"/><path d="M70.85,112.35a1.11,1.11,0,1,0-1.11-1.11,1.11,1.11,0,0,0,1.11,1.11" transform="translate(0 0)"/><path d="M17,18.66a1.11,1.11,0,0,0,0-2.22,1.11,1.11,0,0,0,0,2.22" transform="translate(0 0)"/><path d="M85.16,39a1.11,1.11,0,1,0,0-2.22,1.11,1.11,0,1,0,0,2.22" transform="translate(0 0)"/><path d="M59.8,64.3a1.11,1.11,0,1,0-1.11-1.1,1.11,1.11,0,0,0,1.11,1.1" transform="translate(0 0)"/><path d="M66.65,69.94a1.11,1.11,0,1,0-1.11-1.11,1.11,1.11,0,0,0,1.11,1.11" transform="translate(0 0)"/><path d="M103.66,72.08a1.11,1.11,0,1,0,0-2.22,1.11,1.11,0,1,0,0,2.22" transform="translate(0 0)"/><path d="M17.63,90.52a1.11,1.11,0,1,0-1.11-1.11,1.11,1.11,0,0,0,1.11,1.11" transform="translate(0 0)"/><path d="M22.64,96.87a1.11,1.11,0,1,0-1.11-1.11,1.11,1.11,0,0,0,1.11,1.11" transform="translate(0 0)"/><path d="M47.19,84.91a1.11,1.11,0,1,0-1.11-1.11,1.11,1.11,0,0,0,1.11,1.11" transform="translate(0 0)"/></svg>