<svg id="Layer_1" data-name="Layer 1" xmlns="http://www.w3.org/2000/svg" xmlns:xlink="http://www.w3.org/1999/xlink" viewBox="0 0 81.21 260.57"><defs><style>.cls-1{fill:#fff;}.cls-2{fill:#fff;}.cls-3{clip-path:url(#clip-path);}</style><clipPath id="clip-path" transform="translate(0)"><rect class="cls-1" width="81.21" height="260.57"/></clipPath></defs><polygon class="cls-2" points="5.16 121.42 1.94 128.25 1.64 128.25 1.64 121.42 0.16 121.42 0.16 129.74 2.98 129.74 6.2 122.91 6.5 122.91 6.5 129.74 7.98 129.74 7.98 121.42 5.16 121.42"/><g class="cls-3"><path class="cls-2" d="M19.91,128.36v-5.75H17l-.86,5.75Zm-5.23-6.94H21.4v6.94h1v3.46H21.1L21,129.74H14.89l-.15,2.08H13.4v-3.46h.84a.77.77,0,0,0,.62-.64l.71-5-.89-.15Z" transform="translate(0)"/><path class="cls-2" d="M27.74,125.76a1.45,1.45,0,0,0,0-2.9H25.41v2.9Zm-2.33,1.44v2.54H23.92v-8.32h3.82a2.89,2.89,0,1,1,0,5.78Z" transform="translate(0)"/><path class="cls-2" d="M32.41,127.87a1,1,0,0,1,1.08,1,1,1,0,0,1-1.08.95,1,1,0,0,1-1-.95,1,1,0,0,1,1-1" transform="translate(0)"/><path class="cls-2" d="M1.64,103.76H.16V95.45H1.64v3.31H3.26c.24,0,.42-.15.59-.52l.72-1.52A2.13,2.13,0,0,1,6.5,95.39l.44.14v1.34H6.5a.69.69,0,0,0-.54.4L5.19,99a1,1,0,0,1-.37.4,2,2,0,0,1,.67.72l.8,1.76c.16.31.37.49.59.49h.6v1.33l-.6.15A2.14,2.14,0,0,1,5,102.49l-.8-1.67c-.15-.37-.39-.58-.62-.58H1.64Z" transform="translate(0)"/><polygon class="cls-2" points="15.79 95.44 15.79 103.76 14.3 103.76 14.3 100.24 10.12 100.24 10.12 103.76 8.63 103.76 8.63 95.44 10.12 95.44 10.12 98.82 14.3 98.82 14.3 95.44 15.79 95.44"/><polygon class="cls-2" points="19.61 102.28 22.84 95.44 25.66 95.44 25.66 103.76 24.17 103.76 24.17 96.93 23.88 96.93 20.65 103.76 17.83 103.76 17.83 95.44 19.32 95.44 19.32 102.28 19.61 102.28"/><polygon class="cls-2" points="33.55 95.44 33.55 96.86 29.04 96.86 29.04 103.76 27.55 103.76 27.55 95.44 33.55 95.44"/><polygon class="cls-2" points="36.19 102.28 39.41 95.44 42.23 95.44 42.23 103.76 40.75 103.76 40.75 96.93 40.45 96.93 37.23 103.76 34.41 103.76 34.41 95.44 35.89 95.44 35.89 102.28 36.19 102.28"/><path class="cls-2" d="M45,101.89c.79,0,1.1.54,1.1,1.23a3.58,3.58,0,0,1-1.35,2.62l-.39-.33a2.19,2.19,0,0,0,.7-1.42.66.66,0,0,0-.06-.32c-.7,0-1-.37-1-.9a.93.93,0,0,1,1-.88" transform="translate(0)"/><path class="cls-2" d="M61.32,163.66a4.4,4.4,0,1,1-4.41-4.42,4.46,4.46,0,0,1,4.41,4.42m-7.34,0a2.95,2.95,0,1,0,2.93-2.92A3,3,0,0,0,54,163.66" transform="translate(0)"/><path class="cls-2" d="M52,163.66a4.4,4.4,0,1,1-4.41-4.42A4.46,4.46,0,0,1,52,163.66m-7.35,0a3,3,0,1,0,2.94-2.92,3,3,0,0,0-2.94,2.92" transform="translate(0)"/><path class="cls-2" d="M63.7,167.82H62.22V159.5H63.7v3.31h1.62c.24,0,.42-.15.6-.52l.71-1.51a2.14,2.14,0,0,1,1.93-1.34l.45.15v1.33h-.45a.7.7,0,0,0-.53.41L67.25,163a1,1,0,0,1-.37.4,1.84,1.84,0,0,1,.67.73l.8,1.75c.17.32.37.49.6.49h.59v1.34l-.59.15A2.13,2.13,0,0,1,67,166.54l-.81-1.66c-.15-.37-.38-.58-.62-.58H63.7Z" transform="translate(0)"/><path class="cls-2" d="M70.45,166.65l.94-1.21a3.83,3.83,0,0,0,2.77,1.07c1,0,2.16-.35,2.16-1.21,0-.57-.4-1-2.16-1-2.17,0-3.4-.9-3.4-2.47,0-1.37,1.31-2.48,3.4-2.48a6.24,6.24,0,0,1,3.24.89v1.72H76.26l-.19-.71a4.73,4.73,0,0,0-1.91-.43c-1.17,0-1.91.46-1.91,1s.22,1,1.91,1c1.89,0,3.64.44,3.64,2.53,0,1.62-1.42,2.69-3.64,2.69a5.68,5.68,0,0,1-3.71-1.34" transform="translate(0)"/><path class="cls-2" d="M40,166.38a1,1,0,0,0,0-2.08H37.1v2.08Zm-2.91-5.44v1.92h2.63a1,1,0,0,0,0-1.92Zm2.63-1.44a2.41,2.41,0,0,1,2.4,2.4,1.75,1.75,0,0,1-.72,1.54,2,2,0,0,1,1.08,1.9A2.47,2.47,0,0,1,40,167.82h-4.4V159.5Z" transform="translate(0)"/><path class="cls-2" d="M80.11,166c.79,0,1.1.53,1.1,1.23a3.62,3.62,0,0,1-1.35,2.62l-.38-.33a2.24,2.24,0,0,0,.69-1.43.62.62,0,0,0-.06-.31c-.69,0-1-.37-1-.91a.94.94,0,0,1,1-.87" transform="translate(0)"/><path class="cls-2" d="M46.14,189.64a4.4,4.4,0,1,1-4.41-4.42,4.46,4.46,0,0,1,4.41,4.42m-7.35,0a2.95,2.95,0,1,0,2.94-2.92,3,3,0,0,0-2.94,2.92" transform="translate(0)"/><path class="cls-2" d="M30.93,187.6H29.66v.64a.51.51,0,0,1-.44.51H28.05a1.75,1.75,0,0,0-1.79,1.78l.14.63h1.21v-.63c0-.28.23-.58.44-.58h.45l0,0a1.68,1.68,0,0,1,.35,1.11c0,1-1.25,1.58-2.46,1.58-1,0-2.34-.45-2.34-1.45A1.44,1.44,0,0,1,25.65,190h.13v-1.21h-.13a1,1,0,0,1-1-1c0-.91,1-1.15,1.63-1.15.43,0,1.43.11,1.43,1.15v.13h1.41v-.13a2.54,2.54,0,0,0-2.84-2.48c-1.47,0-3,.78-3,2.48a1.88,1.88,0,0,0,.6,1.43l.09.09-.1.07a2.23,2.23,0,0,0-1.2,1.91c0,1.8,1.94,2.78,3.76,2.78s3.87-.91,3.87-2.91A3.1,3.1,0,0,0,30.1,190l0-.08.08,0a1.87,1.87,0,0,0,.93-1.6Z" transform="translate(0)"/><polygon class="cls-2" points="48.64 193.8 48.64 186.86 45.67 186.86 45.67 185.48 53.1 185.48 53.1 186.86 50.12 186.86 50.12 193.8 48.64 193.8"/><polygon class="cls-2" points="61.14 185.48 61.14 193.8 59.65 193.8 59.65 190.28 55.46 190.28 55.46 193.8 53.98 193.8 53.98 185.48 55.46 185.48 55.46 188.85 59.65 188.85 59.65 185.48 61.14 185.48"/><polygon class="cls-2" points="68.7 185.48 68.7 186.89 64.19 186.89 64.19 188.85 67.96 188.85 67.96 190.28 64.19 190.28 64.19 192.39 69.05 192.39 69.05 193.8 62.7 193.8 62.7 185.48 68.7 185.48"/><path class="cls-2" d="M74.61,189.82a1.45,1.45,0,0,0,0-2.9H71.83v2.9Zm-2.78,4H70.35v-8.32h4.26A2.89,2.89,0,0,1,75.89,191l.43.92c.15.32.35.49.59.49h.89v1.34l-.89.15A2.15,2.15,0,0,1,75,192.52l-.61-1.26H71.83Z" transform="translate(0)"/><rect class="cls-2" x="0.16" y="151.4" width="77.65" height="1.43"/><polygon class="cls-2" points="1.94 141.24 5.16 134.41 7.98 134.41 7.98 142.73 6.5 142.73 6.5 135.89 6.2 135.89 2.98 142.73 0.16 142.73 0.16 134.41 1.64 134.41 1.64 141.24 1.94 141.24"/><path class="cls-2" d="M11.64,137.64H12.8c1.21,0,1.57-.45,1.57-.95s-.52-1.08-1.69-1.08a3.18,3.18,0,0,0-1.68.49l-.19.72H9.66v-1.74a5.22,5.22,0,0,1,3-.9c2.09,0,3.17,1.12,3.17,2.51a1.89,1.89,0,0,1-.89,1.65,2.18,2.18,0,0,1,1.3,1.89c0,1.64-1.36,2.73-3.57,2.73a5.29,5.29,0,0,1-3.64-1.37l.94-1.22a3.48,3.48,0,0,0,2.7,1.14c1,0,2.08-.41,2.08-1.28S14.25,139,12.69,139h-1Z" transform="translate(0)"/><polygon class="cls-2" points="22.47 138.4 24.01 134.41 26.76 134.41 26.76 142.72 25.27 142.72 25.27 135.89 24.98 135.89 23.44 139.89 21.14 139.89 19.6 135.89 19.3 135.89 19.3 142.72 17.89 142.72 17.89 134.41 20.64 134.41 22.18 138.4 22.47 138.4"/><polygon class="cls-2" points="34.54 134.41 34.54 135.82 30.02 135.82 30.02 137.78 33.8 137.78 33.8 139.21 30.02 139.21 30.02 141.32 34.88 141.32 34.88 142.73 28.54 142.73 28.54 134.41 34.54 134.41"/><path class="cls-2" d="M40.18,138.75a1.45,1.45,0,0,0,0-2.9H37.85v2.9Zm-2.33,1.44v2.54H36.37v-8.32h3.81a2.89,2.89,0,1,1,0,5.78Z" transform="translate(0)"/><polygon class="cls-2" points="50.57 134.41 50.57 135.82 46.05 135.82 46.05 137.78 49.82 137.78 49.82 139.21 46.05 139.21 46.05 141.32 50.91 141.32 50.91 142.73 44.57 142.73 44.57 134.41 50.57 134.41"/><polygon class="cls-2" points="59.55 134.41 59.55 142.73 58.07 142.73 58.07 139.21 53.88 139.21 53.88 142.73 52.39 142.73 52.39 134.41 53.88 134.41 53.88 137.78 58.07 137.78 58.07 134.41 59.55 134.41"/><polygon class="cls-2" points="63.12 141.24 66.34 134.41 69.16 134.41 69.16 142.73 67.67 142.73 67.67 135.89 67.38 135.89 64.16 142.73 61.33 142.73 61.33 134.41 62.82 134.41 62.82 141.24 63.12 141.24"/><path class="cls-2" d="M76.32,138.75v-2.9H73.54a1.45,1.45,0,0,0,0,2.9Zm0,1.44H74.08l-.61,1.26a2.15,2.15,0,0,1-1.93,1.34l-.6-.15V141.3h.6a.72.72,0,0,0,.59-.49l.37-.82a2.89,2.89,0,0,1,1-5.58H77.8v8.32H76.32Z" transform="translate(0)"/><path class="cls-2" d="M47.55,176.65a4.4,4.4,0,1,1-4.41-4.42,4.46,4.46,0,0,1,4.41,4.42m-7.35,0a2.95,2.95,0,1,0,2.94-2.92,3,3,0,0,0-2.94,2.92" transform="translate(0)"/><path class="cls-2" d="M37.77,174.92H36.63l-.15-.8a2.83,2.83,0,1,0-1.34,5.33,2.91,2.91,0,0,0,2.25-1.1l1,1.13a4.31,4.31,0,0,1-3.24,1.5,4.34,4.34,0,0,1,0-8.67,4.32,4.32,0,0,1,2.63.91Z" transform="translate(0)"/><polygon class="cls-2" points="55.06 172.49 55.06 173.9 50.24 173.9 50.24 175.86 54.17 175.86 54.17 177.29 50.24 177.29 50.24 180.81 48.76 180.81 48.76 172.49 55.06 172.49"/><polygon class="cls-2" points="62.84 172.49 62.84 173.9 58.03 173.9 58.03 175.86 61.95 175.86 61.95 177.29 58.03 177.29 58.03 180.81 56.54 180.81 56.54 172.49 62.84 172.49"/><polygon class="cls-2" points="69.97 172.49 69.97 173.9 65.45 173.9 65.45 175.86 69.22 175.86 69.22 177.29 65.45 177.29 65.45 179.4 70.31 179.4 70.31 180.81 63.96 180.81 63.96 172.49 69.97 172.49"/><polygon class="cls-2" points="77.46 172.49 77.46 173.9 72.95 173.9 72.95 175.86 76.72 175.86 76.72 177.29 72.95 177.29 72.95 179.4 77.8 179.4 77.8 180.81 71.46 180.81 71.46 172.49 77.46 172.49"/><path class="cls-2" d="M60.58,202.63a4.4,4.4,0,1,1-4.41-4.42,4.46,4.46,0,0,1,4.41,4.42m-7.34,0a2.95,2.95,0,1,0,2.93-2.92,3,3,0,0,0-2.93,2.92" transform="translate(0)"/><path class="cls-2" d="M3.67,205.3a2.69,2.69,0,0,0,0-5.35H1.49v5.35ZM0,206.79v-8.32H3.67a4.17,4.17,0,0,1,0,8.32Z" transform="translate(0)"/><rect class="cls-2" x="9.13" y="198.47" width="1.49" height="8.32"/><polygon class="cls-2" points="17.45 202.47 18.99 198.47 21.74 198.47 21.74 206.79 20.25 206.79 20.25 199.96 19.96 199.96 18.42 203.95 16.12 203.95 14.58 199.96 14.28 199.96 14.28 206.79 12.87 206.79 12.87 198.47 15.62 198.47 17.16 202.47 17.45 202.47"/><polygon class="cls-2" points="29.37 198.47 29.37 199.88 24.86 199.88 24.86 201.84 28.63 201.84 28.63 203.27 24.86 203.27 24.86 205.38 29.71 205.38 29.71 206.79 23.37 206.79 23.37 198.47 29.37 198.47"/><polygon class="cls-2" points="37.42 205.3 37.42 198.47 38.9 198.47 38.9 206.79 36.08 206.79 32.86 199.96 32.56 199.96 32.56 206.79 31.07 206.79 31.07 198.47 33.9 198.47 37.12 205.3 37.42 205.3"/><rect class="cls-2" x="48.91" y="198.47" width="1.48" height="8.32"/><polygon class="cls-2" points="68.01 205.3 68.01 198.47 69.5 198.47 69.5 206.79 66.67 206.79 63.45 199.96 63.15 199.96 63.15 206.79 61.67 206.79 61.67 198.47 64.49 198.47 67.71 205.3 68.01 205.3"/><path class="cls-2" d="M40.1,205.63l.93-1.21a3.87,3.87,0,0,0,2.78,1.07c1,0,2.15-.35,2.15-1.21,0-.57-.4-1-2.15-1-2.17,0-3.4-.9-3.4-2.46,0-1.38,1.31-2.48,3.4-2.48a6.33,6.33,0,0,1,3.24.88v1.72H45.91l-.2-.7a4.51,4.51,0,0,0-1.9-.43c-1.17,0-1.92.45-1.92,1s.23,1,1.92,1c1.89,0,3.64.45,3.64,2.53,0,1.62-1.43,2.7-3.64,2.7a5.63,5.63,0,0,1-3.71-1.35" transform="translate(0)"/><path class="cls-2" d="M70.45,205.63l.94-1.21a3.83,3.83,0,0,0,2.77,1.07c1,0,2.16-.35,2.16-1.21,0-.57-.4-1-2.16-1-2.17,0-3.4-.9-3.4-2.46,0-1.38,1.31-2.48,3.4-2.48a6.29,6.29,0,0,1,3.24.88v1.72H76.26l-.19-.7a4.57,4.57,0,0,0-1.91-.43c-1.17,0-1.91.45-1.91,1s.22,1,1.91,1c1.89,0,3.64.45,3.64,2.53,0,1.62-1.42,2.7-3.64,2.7a5.66,5.66,0,0,1-3.71-1.35" transform="translate(0)"/><path class="cls-2" d="M1.64,116.75H.16v-8.32H1.64v3.31H3.26c.24,0,.42-.14.59-.52l.72-1.51a2.14,2.14,0,0,1,1.93-1.34l.44.15v1.34H6.5a.69.69,0,0,0-.54.4L5.19,112a1,1,0,0,1-.37.4,1.91,1.91,0,0,1,.67.73l.8,1.75c.16.32.37.49.59.49h.6v1.34l-.6.15A2.15,2.15,0,0,1,5,115.47l-.8-1.66c-.15-.37-.39-.58-.62-.58H1.64Z" transform="translate(0)"/><path class="cls-2" d="M25.26,114a1.53,1.53,0,0,0,0-3H23.52v3ZM22,114v-3H20.3a1.53,1.53,0,0,0,0,3ZM20.3,115.4a3,3,0,0,1,0-5.93H22v-1h1.48v1h1.74a3,3,0,0,1,0,5.93H23.52v1.35H22V115.4Z" transform="translate(0)"/><polygon class="cls-2" points="35.07 108.43 35.07 109.84 30.55 109.84 30.55 111.81 34.33 111.81 34.33 113.23 30.55 113.23 30.55 115.34 35.41 115.34 35.41 116.75 29.07 116.75 29.07 108.43 35.07 108.43"/><path class="cls-2" d="M16.74,112.59a4.41,4.41,0,1,1-8.81,0,4.47,4.47,0,0,1,4.4-4.42,4.47,4.47,0,0,1,4.41,4.42m-7.35,0a2.95,2.95,0,1,0,2.94-2.91,3,3,0,0,0-2.94,2.91" transform="translate(0)"/><path class="cls-2" d="M8.09,228.86H5.83V227H8.09Zm1.17,5a1.59,1.59,0,0,0,1.22-.51c.38-.39.59-1.42.79-3.9l0-.59H9.53v-3.1h0a8.17,8.17,0,0,1,.92.73l.88-1.09a20.3,20.3,0,0,0-2.51-1.63l-.83,1c.41.25.9.58,1.27.84l0,0H5.83v-2H4.35v2H1V227H4.35v1.89h-4v1.35h4v4.67H5.83v-4.67H9.74c-.12,1.34-.28,2-.51,2.23a.78.78,0,0,1-.54.13c-.33,0-1.1,0-1.84-.07a3,3,0,0,1,.51,1.36,16.29,16.29,0,0,0,1.9,0" transform="translate(0)"/><path class="cls-2" d="M22.77,234.77a1.33,1.33,0,0,0,.94-.63c.46-.61.68-2.56.92-8,0-.15,0-.57,0-.65H20.06a16.9,16.9,0,0,0,.45-1.64l-1.3-.24a10,10,0,0,1-2,4.59,8.22,8.22,0,0,1,1.08.81,9.12,9.12,0,0,0,1.25-2.18h.64a9.51,9.51,0,0,1-2.69,4.53,4.93,4.93,0,0,1,1.09.8,12.37,12.37,0,0,0,2.79-5.34H22c-.7,3.28-2,5.78-3.77,7a5.47,5.47,0,0,1,1.16.83c1.73-1.43,3.12-4.3,3.81-7.87h.09c-.19,4.15-.4,6-.73,6.44a.52.52,0,0,1-.46.23c-.23,0-.62,0-1.06,0a4.16,4.16,0,0,1,.39,1.39,7,7,0,0,0,1.37,0" transform="translate(0)"/><path class="cls-2" d="M18.08,230.2l-.19-1.26-1.13.32v-2h1v-1.36h-1v-2.35H15.45v2.35h-.59c.07-.51.13-1,.18-1.45l-1.19-.2a14.64,14.64,0,0,1-.69,3.91c.1.07.74.45,1,.66a10.46,10.46,0,0,0,.44-1.55h.84v2.35h0c-.91.25-1.62.44-2.18.56l.35,1.36c.38-.1.79-.23,1.22-.36l.6-.18h0V235h1.31V230.6h0l.55-.17.76-.23" transform="translate(0)"/><path class="cls-2" d="M20.7,233.18l0,0,0,0" transform="translate(0)"/><path class="cls-2" d="M21.27,232.27l0-.05,0,.05" transform="translate(0)"/><path class="cls-2" d="M29.09,233.48c0-1.12-.47-1.76-1.28-1.76a1.06,1.06,0,0,0-1.15,1.05,1,1,0,0,0,1.11,1.06h.12c0,.71-.53,1.32-1.46,1.67l.37,1a3.07,3.07,0,0,0,2.29-3" transform="translate(0)"/><path class="cls-2" d="M39.75,226.18h.91v6.08h-.91Zm2.11,8.18v-9.43H38.61v9.53h1.14v-.94h.91v.84Z" transform="translate(0)"/><path class="cls-2" d="M36.89,234.72a1.1,1.1,0,0,0,.77-.57c.37-.53.47-2.37.61-7.63,0-.16,0-.53,0-.6H36.35c0-.74,0-1.5,0-2.3H35.15c0,.81,0,1.57,0,2.3h-.72v1.26h.71c-.08,3.13-.39,5.37-1.71,6.88a3.54,3.54,0,0,1,.93.92c1.51-1.75,1.88-4.38,2-7.8H37c-.11,4.35-.22,5.78-.46,6.11a.37.37,0,0,1-.37.24c-.17,0-.44,0-.76,0a3.4,3.4,0,0,1,.32,1.26,7.07,7.07,0,0,0,1.13-.05" transform="translate(0)"/><path class="cls-2" d="M33,230.92h-.74V225.5H33Zm1.09-6.55H31.17v8.71h1.09v-1h1.83Z" transform="translate(0)"/><polygon class="cls-2" points="51.36 234.95 51.36 223.65 49.98 223.65 49.98 225.44 48.35 225.44 48.35 226.73 49.98 226.73 49.98 228.04 48.42 228.04 48.42 229.33 49.98 229.33 49.98 230.74 48.19 230.74 48.19 232.02 49.98 232.02 49.98 234.95 51.36 234.95"/><polygon class="cls-2" points="55.51 230.63 53.65 230.63 53.65 229.32 55.27 229.32 55.27 228.04 53.65 228.04 53.65 226.73 55.38 226.73 55.38 225.44 53.65 225.44 53.65 223.62 52.26 223.62 52.26 234.93 53.65 234.93 53.65 231.93 55.51 231.93 55.51 230.63"/><path class="cls-2" d="M46.63,230.41h-.89v-4.49h.89Zm1.21-5.8H44.49v8.23h1.25v-1.12h2.1Z" transform="translate(0)"/><path class="cls-2" d="M10.9,244c.07-.23.13-.47.19-.71-.06.24-.12.48-.19.71" transform="translate(0)"/><path class="cls-2" d="M4.52,241.76h0v-.6H7.05v0c-.2.93-.46,2-.7,2.77h3a8.33,8.33,0,0,1-1.82,3h0a10.3,10.3,0,0,1-3-5.18m3,7.13h0a10.67,10.67,0,0,0,3.38,1.49,6.24,6.24,0,0,1,1-1.35,10.58,10.58,0,0,1-3.15-1.2h0a10.08,10.08,0,0,0,2.44-4.87l-1-.4-.25.06H8.24c.22-1,.42-2.12.55-2.88H1.09v1.45H3v.8c0,2.09-.28,5.11-2.66,7.18a6.12,6.12,0,0,1,1,1.27,9.31,9.31,0,0,0,2.88-5.47v0l0,0a10.2,10.2,0,0,0,2,3h0a9.44,9.44,0,0,1-2.85,1.31,5.62,5.62,0,0,1,.83,1.26,12.13,12.13,0,0,0,3.2-1.6" transform="translate(0)"/><path class="cls-2" d="M10.39,245.33a6.14,6.14,0,0,0,.27-.64,6.14,6.14,0,0,1-.27.64" transform="translate(0)"/><path class="cls-2" d="M8.93,247.6A5.4,5.4,0,0,0,9.4,247a6.61,6.61,0,0,1-.47.58" transform="translate(0)"/><path class="cls-2" d="M9.74,246.53c.12-.19.24-.39.35-.59-.11.2-.23.4-.35.59" transform="translate(0)"/><path class="cls-2" d="M25,246.51H22.4v-1.07H21v1.07H17.76v-1.07H16.34v1.07H13.86v1.3H16a1,1,0,0,1-.09.13,1.43,1.43,0,0,1-.15.22,2.62,2.62,0,0,1-.22.25l-.17.15-.36.27-.14.08a4,4,0,0,1-.55.28l-.14.06a3.27,3.27,0,0,1-.33.14,4.86,4.86,0,0,1,.93,1.13,4.09,4.09,0,0,0,2.79-2.71H21v2.66H22.4v-2.66H25Z" transform="translate(0)"/><path class="cls-2" d="M16.35,242.92h7.12v0c-.12.81-.3.95-1.29.95H18c-1.37,0-1.63-.1-1.63-.63Zm0-2.08h5.72v.9H16.35ZM16.18,245h0a9,9,0,0,0,1.78.13h4.26c1.83,0,2.34-.35,2.57-1.79a4.37,4.37,0,0,1-1.35-.44h0v-3.24H14.93v3.65c0,.76.19,1.2.64,1.46l.14.07.1,0a2.74,2.74,0,0,0,.37.11" transform="translate(0)"/><path class="cls-2" d="M29.8,244.16a9.57,9.57,0,0,1,1.42.8,11.47,11.47,0,0,0,1.34-2.53h3.81a13.8,13.8,0,0,1-.72,2c.34.15.92.43,1.23.6a19.24,19.24,0,0,0,1.26-3.52l-1-.61-.28.07H33.05l.13-.49c.06-.19.11-.39.15-.58s.09-.34.13-.53l-1.57-.27a10.7,10.7,0,0,1-2.09,5" transform="translate(0)"/><path class="cls-2" d="M27.09,241a12.76,12.76,0,0,1,2.41,1.77l.92-1.17A12.54,12.54,0,0,0,28,239.92Z" transform="translate(0)"/><path class="cls-2" d="M37.48,250.4a5.52,5.52,0,0,1,1-1.29,5.06,5.06,0,0,1-2.38-1.77,8,8,0,0,1-1.27-2.88,8.71,8.71,0,0,0,0-.87v-.78H33.28v.75a6.56,6.56,0,0,1-.6,2.92,6.36,6.36,0,0,1-3.13,3,6.35,6.35,0,0,1,1.11,1.15,7.23,7.23,0,0,0,3.56-3.66v0a6.09,6.09,0,0,0,3.24,3.48" transform="translate(0)"/><path class="cls-2" d="M28.28,249.38c.88-1.4,1.63-2.69,2.21-3.82l-1.14-.95A31.77,31.77,0,0,1,27,248.4Z" transform="translate(0)"/><path class="cls-2" d="M41.84,250.14l-.43.21.43-.21" transform="translate(0)"/><path class="cls-2" d="M42.7,249.59a5.09,5.09,0,0,1-.45.31,5.09,5.09,0,0,0,.45-.31" transform="translate(0)"/><rect class="cls-2" x="41.62" y="239.95" width="8.65" height="1.38"/><path class="cls-2" d="M44.83,244.66h1.85v3.74c0,1.46.39,1.89,1.73,1.89h1.46c1.23,0,1.6-.6,1.75-2.81a4,4,0,0,1-1.32-.59c-.06,1.77-.14,2.06-.55,2.06h-1.1c-.41,0-.48-.08-.48-.55v-3.74h3.22v-1.4H40.52v1.4h2.76a9.59,9.59,0,0,1-.27,1.76.08.08,0,0,1,0,0,4.43,4.43,0,0,1-.18.55l-.06.13a2.44,2.44,0,0,1-.1.24l-.11.15a1.73,1.73,0,0,1-.19.28,2.42,2.42,0,0,1-.25.31l-.21.2a3.93,3.93,0,0,1-.38.31l-.21.13c-.16.1-.34.2-.52.29l-.23.1a2.75,2.75,0,0,1-.3.14,4.27,4.27,0,0,1,.89,1.17c3-1.24,3.49-3.55,3.68-5.8" transform="translate(0)"/><path class="cls-2" d="M44.44,247a2.45,2.45,0,0,0,.08-.29,2.45,2.45,0,0,1-.08.29" transform="translate(0)"/><path class="cls-2" d="M43,249.37a3.25,3.25,0,0,0,.41-.42,4.07,4.07,0,0,1-.41.42" transform="translate(0)"/><path class="cls-2" d="M43.61,248.69c.11-.15.2-.3.3-.46l-.3.46" transform="translate(0)"/><path class="cls-2" d="M44.1,247.87c.07-.14.13-.28.19-.43-.06.15-.12.29-.19.43" transform="translate(0)"/><path class="cls-2" d="M60.64,242.26l-.91,1a38.71,38.71,0,0,1,3.77,2l1-1.15c-1-.6-3.18-1.57-3.82-1.86" transform="translate(0)"/><path class="cls-2" d="M63,246.37v-1.28H55.59a16.81,16.81,0,0,0,3.12-1.93l-1-.87A13.16,13.16,0,0,1,54,244.14l.81,1.3h0l.64-.29h0v1.24h2.93v2.41H54v1.3H64.49v-1.3H59.94v-2.41Z" transform="translate(0)"/><path class="cls-2" d="M58.47,240.48H53.9v3h1.41v-1.66h7.75v1.43h1.48v-2.73H60.23c-.14-.37-.35-.82-.54-1.21,0-.09-.08-.18-.13-.27l-1.53.42c.16.35.31.72.44,1.05Z" transform="translate(0)"/><path class="cls-2" d="M73.68,244.83H71.31v-1.17h2.37Zm0,2.33H71.31V246h2.37ZM70,248.31h5v-5.79H70Z" transform="translate(0)"/><path class="cls-2" d="M77.8,248.92v-9.23H70.55V241h5.76v7.88c0,.15,0,.23-.2.23h-1a5.08,5.08,0,0,1,.41,1.27,3.77,3.77,0,0,0,1.73-.25c.39-.22.52-.53.52-1.23" transform="translate(0)"/><rect class="cls-2" x="67.29" y="242.03" width="1.49" height="8.44"/><path class="cls-2" d="M70.09,241a8.32,8.32,0,0,0-1.5-1.83l-1.12.7a9.41,9.41,0,0,1,1.42,1.9Z" transform="translate(0)"/><rect class="cls-2" x="0.53" y="215.46" width="77.28" height="1.43"/><rect class="cls-2" x="0.16" y="85.35" width="14.68" height="1.43"/><rect class="cls-2" x="0.36" y="259.15" width="14.68" height="1.43"/><path class="cls-2" d="M62.41,64.11a2,2,0,0,1-2-2v-.64h-.68v.63a2,2,0,0,1-.58,1.42,2,2,0,0,1-1.4.58h-.66v.68h.64a2,2,0,0,1,1.41.58,1.94,1.94,0,0,1,.58,1.42v.63h.68v-.63a2,2,0,0,1,2-2h.66V64.1ZM54.15,51.85a2,2,0,0,1-.58-1.42v-.64h-.69v.64a2,2,0,0,1-.59,1.41,1.93,1.93,0,0,1-1.4.58h-.65v.68h.65a2,2,0,0,1,2,2v.64h.68V55.1a2,2,0,0,1,2-2h.65v-.68h-.65a2,2,0,0,1-1.4-.58M25.3,21.43H25a2,2,0,0,1-2-2V18.8H22.3v.63a2,2,0,0,1-2,2h-.66v.68h.65a2,2,0,0,1,2,2v.63H23v-.63a2,2,0,0,1,2-2h.66v-.69H25.3M39.22,11v.07l0-.07a2,2,0,0,1-2-2V8.38h-.68V9a2,2,0,0,1-2,2h-.65v.68h.63a2,2,0,0,1,2,2v.19c0,.13,0,.3,0,.32v.13h.69v-.64a2,2,0,0,1,.59-1.42,2,2,0,0,1,1.39-.58h.66V11h-.63m31.31,7.73c-1.06,0-2.33,0-3.36,0H66.5a1.95,1.95,0,0,1-2-2c0-.54,0-1.26,0-2l0-2.19h-.83v.15c0,1,0,2.27,0,3.26v.78a1.92,1.92,0,0,1-.57,1.39,2,2,0,0,1-1.37.56h-2l-2.2,0v.83h.16c1.08,0,2.45,0,3.44,0h.6a1.94,1.94,0,0,1,1.38.57,2,2,0,0,1,.57,1.39c0,.54,0,1.25,0,2l0,2.2h.83v-.16c0-1.05,0-2.32,0-3.35V21.5a1.93,1.93,0,0,1,2-1.95h2l2.17,0v-.83ZM37.86,59.62H37a1.95,1.95,0,0,1-1.94-2c0-.47,0-1.06,0-1.69l0-2.51h-.83v.16c0,1,0,2.27,0,3.44v.59a1.95,1.95,0,0,1-2,2h-2l-2.2,0v.83h.16l3.45,0h.6a1.95,1.95,0,0,1,1.94,2c0,.63,0,1.5,0,2.38v1.81h.83v-.16c0-1.05,0-2.33,0-3.35v-.68A1.92,1.92,0,0,1,35.67,61,1.9,1.9,0,0,1,37,60.38h0l2,0h2.16v-.82h-.16l-3.23,0M18.91,30H18.3a1.91,1.91,0,0,1-1.37-.57A1.94,1.94,0,0,1,16.36,28c0-.46,0-1.05,0-1.68l0-2.51h-.82V24c0,1.05,0,2.32,0,3.35V28A1.88,1.88,0,0,1,15,29.42a1.94,1.94,0,0,1-1.37.57h0l-2.38,0L9.45,30v.83h.16l3.35,0h.7a1.95,1.95,0,0,1,1.94,2c0,.64,0,1.51,0,2.39V36.9h.82v-.16c0-1.05,0-2.33,0-3.35v-.68a1.86,1.86,0,0,1,.57-1.39,1.9,1.9,0,0,1,1.37-.57h2l2.18,0V30h-.16l-3.44,0M45.85,72.7a.72.72,0,1,0,0-1.43.72.72,0,1,0,0,1.43M11,12.07a.72.72,0,1,0-.72-.72.72.72,0,0,0,.72.72m44.1,13.19a.72.72,0,1,0-.72-.72.72.72,0,0,0,.72.72M38.69,41.61a.72.72,0,1,0-.71-.72.72.72,0,0,0,.71.72m4.44,3.65a.72.72,0,1,0-.72-.72.71.71,0,0,0,.72.72m23.95,1.38a.72.72,0,1,0-.72-.71.72.72,0,0,0,.72.71M11.41,58.57a.72.72,0,1,0-.72-.71.71.71,0,0,0,.72.71m3.24,4.11a.72.72,0,1,0-.72-.72.72.72,0,0,0,.72.72m15.88-7.74a.72.72,0,1,0,0-1.43.72.72,0,1,0,0,1.43M77.65,77.65H0V0H77.65Z" transform="translate(0)"/></g></svg>