<svg id="Слой_1" data-name="Слой 1" xmlns="http://www.w3.org/2000/svg" viewBox="0 0 600 200"><defs><style>.cls-1{fill:#999aca;}</style></defs><polygon class="cls-1" points="278.01 0 278.01 199.62 294.18 141.82 294.18 57.04 278.01 0"/><polygon class="cls-1" points="185.34 0 185.36 199.75 214.9 148.11 214.9 51.28 185.34 0"/><polygon class="cls-1" points="92.67 0 92.71 199.87 135.63 154.39 135.63 45.53 92.67 0"/><polygon class="cls-1" points="0 0 0.06 200 56.36 160.68 56.36 39.77 0 0"/><polygon class="cls-1" points="544.24 40.45 544.24 156.4 600 199.13 600 2.4 544.24 40.45"/><polygon class="cls-1" points="493.8 199.29 454.3 151.8 454.3 45.98 493.8 1.6 493.8 199.29"/><polygon class="cls-1" points="387.59 199.46 360.88 147.19 360.88 51.51 387.59 0.8 387.59 199.46"/></svg>