<svg width="170" height="885" viewBox="0 0 170 885" fill="none" xmlns="http://www.w3.org/2000/svg">
<g clip-path="url(#clip0)">
<path d="M0 474.935L169.677 474.935L120.547 451.085L48.484 451.085L0 474.935Z" fill="#F2F2F2"/>
<path d="M0 611.623L169.787 611.594L125.893 568.022H43.588L0 611.623Z" fill="#F2F2F2"/>
<path d="M0 748.312L169.889 748.253L131.232 684.946H38.7005L0 748.312Z" fill="#F2F2F2"/>
<path d="M0 885L170 884.911L136.578 801.869H33.8045L0 885Z" fill="#F2F2F2"/>
<path d="M34.3825 82.246L132.94 82.246L169.261 -0.00012207L2.04004 -0.00012207L34.3825 82.246Z" fill="#F2F2F2"/>
<path d="M169.396 156.645L129.03 214.908L39.0829 214.908L1.35986 156.645L169.396 156.645Z" fill="#F2F2F2"/>
<path d="M169.541 313.305L125.112 352.702L43.7837 352.702L0.680176 313.305L169.541 313.305Z" fill="#F2F2F2"/>
</g>
<defs>
<clipPath id="clip0">
<rect width="885" height="170" fill="white" transform="translate(0 885) rotate(-90)"/>
</clipPath>
</defs>
</svg>
